<svg aria-hidden="true" style="position: absolute; width: 0; height: 0; overflow: hidden;" version="1.1" xmlns="http://www.w3.org/2000/svg" xmlns:xlink="http://www.w3.org/1999/xlink">
<defs>
<symbol id="icon-create" viewBox="0 0 24 24">
<path d="M20.719 7.031l-1.828 1.828-3.75-3.75 1.828-1.828q0.281-0.281 0.703-0.281t0.703 0.281l2.344 2.344q0.281 0.281 0.281 0.703t-0.281 0.703zM3 17.25l11.063-11.063 3.75 3.75-11.063 11.063h-3.75v-3.75z"></path>
</symbol>
<symbol id="icon-keyboard_arrow_down" viewBox="0 0 24 24">
<path d="M7.406 8.578l4.594 4.594 4.594-4.594 1.406 1.406-6 6-6-6z"></path>
</symbol>
<symbol id="icon-info_outline" viewBox="0 0 24 24">
<path d="M11.016 9v-2.016h1.969v2.016h-1.969zM12 20.016q3.281 0 5.648-2.367t2.367-5.648-2.367-5.648-5.648-2.367-5.648 2.367-2.367 5.648 2.367 5.648 5.648 2.367zM12 2.016q4.125 0 7.055 2.93t2.93 7.055-2.93 7.055-7.055 2.93-7.055-2.93-2.93-7.055 2.93-7.055 7.055-2.93zM11.016 17.016v-6h1.969v6h-1.969z"></path>
</symbol>
<symbol id="icon-email" viewBox="0 0 24 24">
<path d="M13 6h-6v2h6v-2zM16 9h-9v1h9v-1zM16 11h-9v1h9v-1zM20 12.001v-11.001h-17v11.033l-2-1.033v13h21v-12.992l-2 0.993zM5 3h13v9.909l-2 1.072v-0.981h-9v1h8.965l-4.492 2.408-6.473-3.343v-10.065zM3 22v-7.866l14.651 7.866h-14.651zM20 20.949l-6.378-3.407 6.378-3.408v6.815z"></path>
</symbol>
<symbol id="icon-files" viewBox="0 0 24 24">
<path d="M5 0v3h-3v21h17v-3h3v-21h-17zM17 22h-13v-17h1v16h12v1zM20 19h-13v-17h13v17zM15 5h-6v2h6v-2zM18 8h-9v1h9v-1zM18 10h-9v1h9v-1zM18 12h-9v1h9v-1zM12 14h-3v1h3v-1z"></path>
</symbol>
<symbol id="icon-file" viewBox="0 0 24 24">
<path d="M7 7h6v2h-6zM7 10h9v1h-9zM7 12h9v1h-9zM7 14h9v1h-9zM7 16h3v1h-3zM16.43 2h-13.43v21h17v-17.465l-3.57-3.535zM18 6.363v0.637h-3v-3h0.602l2.398 2.363zM5 21v-17h9v4h4v13h-13z"></path>
</symbol>
<symbol id="icon-home" viewBox="0 0 16 16">
<path d="M15.709 6.203l-5.91-5.909c-0.226-0.227-0.528-0.314-0.824-0.289h-1.951c-0.296-0.024-0.598 0.063-0.824 0.289l-1.2 1.2v-1.489h-2.999v4.489l-1.711 1.71c-0.227 0.226-0.313 0.529-0.289 0.824v1.975c0 0.552 0.447 1 1 1h1v4.999c0 0.552 0.447 1 1 1h9.998c0.553 0 1-0.448 1-1v-4.999h1c0.553 0 1-0.448 1-1v-1.975c0.024-0.295-0.062-0.598-0.289-0.824zM13.998 8.002h-1.999v5.998h-1.999v-3.999h-3.999v3.999h-2v-5.998h-2v-0.555l5.444-5.444h1.109l5.444 5.444v0.555z"></path>
</symbol>
<symbol id="icon-address-book" viewBox="0 0 16 16">
<path d="M3 0v16h12v-16h-12zM9 4.005c1.102 0 1.995 0.893 1.995 1.995s-0.893 1.995-1.995 1.995-1.995-0.893-1.995-1.995 0.893-1.995 1.995-1.995v0zM12 12h-6v-1c0-1.105 0.895-2 2-2v0h2c1.105 0 2 0.895 2 2v1z"></path>
<path d="M1 1h1.5v3h-1.5v-3z"></path>
<path d="M1 5h1.5v3h-1.5v-3z"></path>
<path d="M1 9h1.5v3h-1.5v-3z"></path>
<path d="M1 13h1.5v3h-1.5v-3z"></path>
</symbol>
<symbol id="icon-bell" viewBox="0 0 16 16">
<path d="M16.023 12.5c0-4.5-4-3.5-4-7 0-0.29-0.028-0.538-0.079-0.749-0.263-1.766-1.44-3.183-2.965-3.615 0.014-0.062 0.021-0.125 0.021-0.191 0-0.52-0.45-0.945-1-0.945s-1 0.425-1 0.945c0 0.065 0.007 0.129 0.021 0.191-1.71 0.484-2.983 2.208-3.020 4.273-0.001 0.030-0.001 0.060-0.001 0.091 0 3.5-4 2.5-4 7 0 1.191 2.665 2.187 6.234 2.439 0.336 0.631 1.001 1.061 1.766 1.061s1.43-0.43 1.766-1.061c3.568-0.251 6.234-1.248 6.234-2.439 0-0.004-0-0.007-0-0.011l0.024 0.011zM12.91 13.345c-0.847 0.226-1.846 0.389-2.918 0.479-0.089-1.022-0.947-1.824-1.992-1.824s-1.903 0.802-1.992 1.824c-1.072-0.090-2.071-0.253-2.918-0.479-1.166-0.311-1.724-0.659-1.928-0.845 0.204-0.186 0.762-0.534 1.928-0.845 1.356-0.362 3.1-0.561 4.91-0.561s3.554 0.199 4.91 0.561c1.166 0.311 1.724 0.659 1.928 0.845-0.204 0.186-0.762 0.534-1.928 0.845z"></path>
</symbol>
<symbol id="icon-clipboard" viewBox="0 0 16 16">
<path d="M14.5 2h-4.5c0-1.105-0.895-2-2-2s-2 0.895-2 2h-4.5c-0.276 0-0.5 0.224-0.5 0.5v13c0 0.276 0.224 0.5 0.5 0.5h13c0.276 0 0.5-0.224 0.5-0.5v-13c0-0.276-0.224-0.5-0.5-0.5zM8 1c0.552 0 1 0.448 1 1s-0.448 1-1 1c-0.552 0-1-0.448-1-1s0.448-1 1-1zM14 15h-12v-12h2v1.5c0 0.276 0.224 0.5 0.5 0.5h7c0.276 0 0.5-0.224 0.5-0.5v-1.5h2v12z"></path>
<path d="M7 13.414l-3.207-3.707 0.914-0.914 2.293 1.793 4.293-3.793 0.914 0.914z"></path>
</symbol>
<symbol id="icon-settings" viewBox="0 0 32 32">
<path d="M30.391 12.68l-3.064-0.614c-0.154-0.443-0.336-0.873-0.537-1.289l1.736-2.604c0.529-0.793 0.424-1.85-0.25-2.523l-1.924-1.924c-0.387-0.387-0.898-0.586-1.416-0.586-0.383 0-0.77 0.11-1.107 0.336l-2.604 1.735c-0.418-0.202-0.848-0.382-1.291-0.536l-0.614-3.065c-0.186-0.936-1.008-1.608-1.961-1.608h-2.72c-0.953 0-1.774 0.673-1.961 1.608l-0.614 3.065c-0.443 0.154-0.873 0.335-1.289 0.536l-2.603-1.735c-0.339-0.226-0.725-0.336-1.109-0.336-0.517 0-1.028 0.199-1.415 0.586l-1.923 1.924c-0.674 0.674-0.779 1.73-0.25 2.523l1.735 2.604c-0.202 0.417-0.382 0.847-0.536 1.29l-3.066 0.613c-0.935 0.187-1.608 1.008-1.608 1.961v2.72c0 0.953 0.673 1.775 1.608 1.961l3.065 0.615c0.154 0.443 0.335 0.873 0.536 1.289l-1.734 2.604c-0.529 0.793-0.424 1.85 0.25 2.523l1.924 1.924c0.387 0.387 0.898 0.586 1.415 0.586 0.384 0 0.771-0.111 1.108-0.336l2.604-1.736c0.417 0.203 0.847 0.383 1.29 0.537l0.613 3.064c0.187 0.936 1.008 1.609 1.961 1.609h2.72c0.953 0 1.775-0.674 1.961-1.609l0.615-3.064c0.443-0.154 0.873-0.336 1.289-0.537l2.604 1.736c0.338 0.225 0.725 0.336 1.107 0.336 0.518 0 1.029-0.199 1.416-0.586l1.924-1.924c0.674-0.674 0.779-1.73 0.25-2.523l-1.736-2.604c0.203-0.418 0.383-0.848 0.537-1.291l3.064-0.613c0.935-0.185 1.609-1.008 1.609-1.961v-2.72c0-0.953-0.674-1.774-1.609-1.961zM26.934 17.975c-0.695 0.139-1.264 0.635-1.496 1.305-0.129 0.369-0.279 0.727-0.447 1.074-0.311 0.639-0.258 1.393 0.135 1.982l1.736 2.604-1.924 1.924-2.604-1.736c-0.334-0.223-0.721-0.336-1.109-0.336-0.297 0-0.596 0.066-0.871 0.199-0.348 0.168-0.705 0.32-1.076 0.449-0.668 0.232-1.164 0.801-1.303 1.496l-0.615 3.066h-2.72l-0.613-3.066c-0.139-0.695-0.635-1.264-1.304-1.496-0.369-0.129-0.728-0.279-1.075-0.447-0.276-0.135-0.574-0.201-0.872-0.201-0.389 0-0.775 0.113-1.109 0.336l-2.604 1.736-1.924-1.924 1.735-2.604c0.393-0.59 0.444-1.344 0.137-1.98-0.168-0.348-0.319-0.705-0.448-1.076-0.232-0.668-0.802-1.164-1.496-1.303l-3.065-0.615-0.002-2.721 3.066-0.613c0.694-0.139 1.264-0.635 1.496-1.304 0.129-0.369 0.278-0.728 0.447-1.075 0.31-0.638 0.258-1.392-0.136-1.981l-1.734-2.604 1.923-1.924 2.604 1.735c0.334 0.223 0.721 0.336 1.109 0.336 0.297 0 0.595-0.066 0.871-0.199 0.347-0.168 0.705-0.319 1.075-0.448 0.669-0.232 1.165-0.802 1.304-1.496l0.614-3.065 2.72-0.001 0.613 3.066c0.139 0.694 0.635 1.264 1.305 1.496 0.369 0.129 0.727 0.278 1.074 0.447 0.277 0.134 0.574 0.2 0.873 0.2 0.389 0 0.775-0.113 1.109-0.336l2.604-1.735 1.924 1.924-1.736 2.604c-0.393 0.59-0.443 1.343-0.137 1.98 0.168 0.347 0.32 0.705 0.449 1.075 0.232 0.669 0.801 1.165 1.496 1.304l3.064 0.614 0.003 2.72-3.066 0.614zM16 9.001c-3.865 0-7 3.135-7 7 0 3.866 3.135 7 7 7s7-3.135 7-7c0-3.865-3.135-7-7-7zM16 22.127c-3.382 0-6.125-2.744-6.125-6.125s2.743-6.125 6.125-6.125c3.381 0 6.125 2.743 6.125 6.125 0 3.381-2.744 6.125-6.125 6.125zM16 12.001c-2.21 0-4 1.79-4 4s1.79 4 4 4c2.209 0 4-1.791 4-4s-1.791-4-4-4zM16 19.002c-1.656 0-3-1.344-3-3s1.344-3 3-3 3 1.344 3 3c0 1.656-1.344 3-3 3z"></path>
</symbol>
<symbol id="icon-mail" viewBox="0 0 32 32">
<path d="M28 5h-24c-2.209 0-4 1.792-4 4v13c0 2.209 1.791 4 4 4h24c2.209 0 4-1.791 4-4v-13c0-2.208-1.791-4-4-4zM2 10.25l6.999 5.25-6.999 5.25v-10.5zM30 22c0 1.104-0.898 2-2 2h-24c-1.103 0-2-0.896-2-2l7.832-5.875 4.368 3.277c0.533 0.398 1.166 0.6 1.8 0.6 0.633 0 1.266-0.201 1.799-0.6l4.369-3.277 7.832 5.875zM30 20.75l-7-5.25 7-5.25v10.5zM17.199 18.602c-0.349 0.262-0.763 0.4-1.199 0.4s-0.851-0.139-1.2-0.4l-12.8-9.602c0-1.103 0.897-2 2-2h24c1.102 0 2 0.897 2 2l-12.801 9.602z"></path>
</symbol>
<symbol id="icon-params" viewBox="0 0 32 32">
<path d="M8 6.021v-3.021c0-1.654-1.346-3-3-3s-3 1.346-3 3v3.021c-1.208 0.915-2 2.348-2 3.979s0.792 3.064 2 3.977v15.023c0 1.654 1.346 3 3 3s3-1.346 3-3v-15.023c1.208-0.912 2-2.346 2-3.977s-0.792-3.064-2-3.979zM4 3c0-0.553 0.447-1 1-1s1 0.447 1 1v2.1c-0.323-0.065-0.657-0.1-1-0.1s-0.677 0.035-1 0.1v-2.1zM6 29c0 0.553-0.447 1-1 1s-1-0.447-1-1v-14.102c0.323 0.067 0.657 0.102 1 0.102s0.677-0.035 1-0.102v14.102zM7.865 10.84c-0.016 0.053-0.030 0.105-0.049 0.158-0.095 0.264-0.217 0.514-0.378 0.736-0.004 0.006-0.010 0.010-0.014 0.016-0.174 0.238-0.381 0.449-0.616 0.627-0.004 0.004-0.007 0.006-0.010 0.008-0.241 0.182-0.51 0.328-0.799 0.43-0.313 0.113-0.646 0.185-0.999 0.185s-0.686-0.072-1-0.186c-0.289-0.102-0.558-0.248-0.799-0.43-0.003-0.002-0.006-0.004-0.010-0.008-0.235-0.178-0.442-0.389-0.616-0.627-0.004-0.006-0.010-0.010-0.014-0.016-0.161-0.223-0.283-0.473-0.378-0.736-0.019-0.053-0.033-0.105-0.049-0.158-0.079-0.267-0.134-0.546-0.134-0.839 0-0.295 0.055-0.574 0.135-0.842 0.016-0.053 0.030-0.105 0.049-0.156 0.094-0.264 0.216-0.514 0.378-0.738 0.004-0.006 0.010-0.010 0.014-0.016 0.174-0.236 0.381-0.449 0.616-0.627 0.004-0.002 0.007-0.006 0.010-0.008 0.24-0.179 0.509-0.326 0.798-0.429 0.314-0.112 0.647-0.184 1-0.184s0.686 0.072 1 0.184c0.289 0.104 0.558 0.25 0.799 0.43 0.003 0.002 0.006 0.006 0.010 0.008 0.235 0.178 0.442 0.391 0.616 0.627 0.004 0.006 0.010 0.010 0.014 0.016 0.161 0.223 0.283 0.473 0.377 0.737 0.019 0.051 0.034 0.103 0.049 0.156 0.080 0.268 0.135 0.547 0.135 0.842 0 0.293-0.055 0.572-0.135 0.84zM30 6.021v-3.021c0-1.654-1.346-3-3-3s-3 1.346-3 3v3.021c-1.209 0.915-2 2.348-2 3.979s0.791 3.064 2 3.977v15.023c0 1.654 1.346 3 3 3s3-1.346 3-3v-15.023c1.207-0.912 2-2.346 2-3.977s-0.793-3.064-2-3.979zM26 3c0-0.553 0.447-1 1-1s1 0.447 1 1v2.1c-0.324-0.065-0.658-0.1-1-0.1-0.344 0-0.678 0.035-1 0.1v-2.1zM28 29c0 0.553-0.447 1-1 1s-1-0.447-1-1v-14.102c0.322 0.067 0.656 0.102 1 0.102 0.342 0 0.676-0.035 1-0.102v14.102zM29.865 10.84c-0.016 0.053-0.031 0.105-0.049 0.158-0.096 0.264-0.217 0.514-0.379 0.736-0.004 0.006-0.010 0.010-0.014 0.016-0.174 0.238-0.381 0.449-0.615 0.627-0.004 0.004-0.008 0.006-0.010 0.008-0.242 0.182-0.51 0.328-0.799 0.43-0.313 0.113-0.647 0.185-0.999 0.185-0.354 0-0.686-0.072-1-0.186-0.289-0.102-0.559-0.248-0.799-0.43-0.004-0.002-0.006-0.004-0.010-0.008-0.236-0.178-0.443-0.389-0.617-0.627-0.004-0.006-0.010-0.010-0.014-0.016-0.16-0.223-0.283-0.473-0.377-0.736-0.020-0.053-0.033-0.105-0.049-0.158-0.079-0.267-0.134-0.546-0.134-0.839 0-0.295 0.055-0.574 0.135-0.842 0.016-0.053 0.029-0.105 0.049-0.156 0.094-0.264 0.217-0.514 0.377-0.738 0.004-0.006 0.010-0.010 0.014-0.016 0.174-0.236 0.381-0.449 0.617-0.627 0.004-0.002 0.006-0.006 0.010-0.008 0.24-0.18 0.51-0.326 0.799-0.43 0.313-0.111 0.645-0.183 0.999-0.183 0.352 0 0.686 0.072 1 0.184 0.289 0.104 0.557 0.25 0.799 0.43 0.002 0.002 0.006 0.006 0.010 0.008 0.234 0.178 0.441 0.391 0.615 0.627 0.004 0.006 0.010 0.010 0.014 0.016 0.162 0.225 0.283 0.475 0.379 0.738 0.018 0.051 0.033 0.104 0.049 0.156 0.079 0.267 0.134 0.546 0.134 0.841 0 0.293-0.055 0.572-0.135 0.84zM19 18.021v-15.021c0-1.654-1.346-3-3-3s-3 1.346-3 3v15.021c-1.208 0.914-2 2.348-2 3.979s0.792 3.064 2 3.977v3.023c0 1.654 1.346 3 3 3s3-1.346 3-3v-3.023c1.207-0.912 2-2.346 2-3.977s-0.793-3.064-2-3.979zM15 3c0-0.553 0.447-1 1-1s1 0.447 1 1v14.1c-0.324-0.064-0.658-0.1-1-0.1-0.343 0-0.677 0.035-1 0.1v-14.1zM17 29c0 0.553-0.447 1-1 1s-1-0.447-1-1v-2.102c0.323 0.067 0.657 0.102 1 0.102 0.342 0 0.676-0.035 1-0.102v2.102zM18.865 22.84c-0.016 0.053-0.031 0.105-0.049 0.158-0.096 0.264-0.217 0.514-0.379 0.736-0.004 0.006-0.010 0.010-0.014 0.016-0.174 0.238-0.381 0.449-0.615 0.627-0.004 0.004-0.008 0.006-0.010 0.008-0.242 0.182-0.51 0.328-0.799 0.43-0.313 0.113-0.647 0.185-0.999 0.185s-0.686-0.072-1-0.186c-0.289-0.102-0.558-0.248-0.799-0.43-0.003-0.002-0.006-0.004-0.010-0.008-0.235-0.178-0.442-0.389-0.616-0.627-0.004-0.006-0.010-0.010-0.014-0.016-0.161-0.223-0.283-0.473-0.378-0.736-0.019-0.053-0.033-0.105-0.049-0.158-0.079-0.267-0.134-0.546-0.134-0.839 0-0.295 0.055-0.574 0.135-0.842 0.016-0.053 0.030-0.105 0.049-0.156 0.095-0.264 0.217-0.514 0.378-0.738 0.004-0.006 0.010-0.010 0.014-0.016 0.174-0.236 0.381-0.449 0.616-0.627 0.004-0.002 0.007-0.006 0.010-0.008 0.241-0.18 0.51-0.326 0.799-0.43 0.313-0.111 0.646-0.183 0.999-0.183 0.352 0 0.686 0.072 1 0.184 0.289 0.104 0.557 0.25 0.799 0.43 0.002 0.002 0.006 0.006 0.010 0.008 0.234 0.178 0.441 0.391 0.615 0.627 0.004 0.006 0.010 0.010 0.014 0.016 0.162 0.225 0.283 0.475 0.379 0.738 0.018 0.051 0.033 0.104 0.049 0.156 0.079 0.267 0.134 0.546 0.134 0.841 0 0.293-0.055 0.572-0.135 0.84z"></path>
</symbol>
</defs>
</svg>
